<svg xmlns="http://www.w3.org/2000/svg" width="356.794" height="508.752" viewBox="0 0 356.794 508.752">
  <defs>
    <style>
      .cls-1 {
        fill: #fc9;
      }

      .cls-2 {
        fill: #353b6f;
      }

      .cls-3 {
        fill: #3f4883;
      }

      .cls-4 {
        fill: #ededed;
      }

      .cls-5, .cls-6 {
        fill: #09f;
      }

      .cls-5 {
        opacity: 0.28;
      }

      .cls-7 {
        fill: #222a56;
      }

      .cls-8 {
        fill: none;
      }

      .cls-9 {
        fill: #f69;
      }

      .cls-10 {
        fill: #ff74b7;
      }

      .cls-11 {
        fill: #ffd217;
      }

      .cls-12 {
        fill: #e0e0e0;
      }

      .cls-13 {
        fill: #a5a5a5;
      }

      .cls-14 {
        fill: #919191;
        font-size: 7px;
        font-family: SegoeUI, Segoe UI;
      }
    </style>
  </defs>
  <g id="남자사원1_사본" data-name="남자사원1 사본" transform="translate(-600.716 -252.328)">
    <g id="손">
      <path id="패스_13" data-name="패스 13" class="cls-1" d="M705.8,329.09c1.07,4.98,1.7,7.92.43,8.92-1.67,1.33-6.92-.52-22.69-14.63l8.96-9.65-9.33-14.95s-.49-2.37.18-2.66c.37-.16.96.4,1.17.6,2.04,1.97,12.39,15.87,15.39,19.91a30.95,30.95,0,0,0-.28-4.19,31.3,31.3,0,0,0-.77-3.88c.07-.11.62-.95,1.17-.85.2.04.49.21.9,1.49a10.675,10.675,0,0,1,.46,1.72,5.483,5.483,0,0,1,.07.84C701.52,313.51,704.76,324.23,705.8,329.09Z"/>
    </g>
    <g id="바지">
      <path id="패스_14" data-name="패스 14" class="cls-2" d="M926.53,732.47q-22.89,21.975-19.66,26.92,4.11,6.3,50.64-15.05l-11.73-19.46Z"/>
      <path id="패스_15" data-name="패스 15" class="cls-2" d="M841.1,449.88l-20.88.19s-7.05,95.69-7.19,107.76.95,31.19.95,31.19,1.9,14.78,2.98,27.25,5.42,124.61,5.42,124.61q-30.555,12.27-29.42,17.08,1.47,6.24,56.08,0l-5.56-21.56s5.21-58.98,7.25-77.69,1.63-39.25,1.02-45.36-5.69-25.02-5.69-25.63,35.8-92.54,35.8-92.54q-20.385-22.635-40.76-45.3"/>
      <path id="패스_16" data-name="패스 16" class="cls-3" d="M841.1,449.88l45.56-4.32s7.05,61.83,3.25,101.42-4.34,34.98-1.08,39.05,23.32,30.37,40.14,84.61l16.81,54.24-19.25,7.59L859,590.92s-11.66-24.68-14.64-72.68-3.26-68.36-3.26-68.36"/>
    </g>
    <g id="셔츠">
      <path id="패스_17" data-name="패스 17" class="cls-4" d="M843.74,316.13a246.217,246.217,0,0,0-1.35,33.53c.53,19.06,3.04,29.35,5.27,56.9,2.66,32.84,1.58,41.73-3.94,43.04-3.22.77-24.11.36-24.11.36l-6.92-54.58-5.32-62.87,26.88-20.79Z"/>
    </g>
    <g id="얼굴">
      <path id="패스_18" data-name="패스 18" class="cls-1" d="M799.54,277.15v20.34s-.61,4.68,3.66,6.03a22.278,22.278,0,0,0,9.49.75c.2-.2,7.39,19.53,7.39,19.53l14.17-12.07s-4.54-13.76-5.08-15.8c-.75-2.83,2.71-4.07,3.32-8.07.55-3.59,0-8.62-2.05-9.19-2.41-.67-6.83,4.82-5.82,7.22a1.982,1.982,0,0,0,.64.83c.12-.08-3.26-5.24-3.44-5.51-3.61-5.49-3.74-5.05-4.94-7.19-3.24-5.77-2.14-8.67-4.09-9.32-3.62-1.22-10.89,7.63-11.22,7.29-.01-.01-.01-.02-.03-.03C801.34,271.91,800.41,274.54,799.54,277.15Z"/>
    </g>
    <g id="옷깃">
      <path id="패스_19" data-name="패스 19" class="cls-5" d="M834.68,311.73q-7.38,6.15-14.75,12.29l2.19,11.88,3.46-2.98c1.42-1.28,2.85-2.55,4.27-3.83q6.945-6.48,13.89-12.95C840.72,314.66,837.7,313.2,834.68,311.73Z"/>
      <path id="패스_20" data-name="패스 20" class="cls-6" d="M834.25,311.73,820.08,323.8q.975,5.745,1.94,11.5c1.03-.87,2.05-1.76,3.08-2.64q9.57-8.295,18.38-16.68Q838.875,313.85,834.25,311.73Z"/>
      <path id="패스_21" data-name="패스 21" class="cls-6" d="M816.67,314.51l3.41,9.29-7.22,10.27-.57-9.78Z"/>
    </g>
    <g id="옷">
      <path id="패스_22" data-name="패스 22" class="cls-2" d="M812.29,328.15v25.83l1.83,47a100.188,100.188,0,0,1,.68,21.53c-.19,2.37-.38,3.42-.68,7.39-.18,2.39-.6,8.32-.75,16.61-.15,8.43.11,11.39-1.69,15.8a25.386,25.386,0,0,1-2.31,4.37c-1.36,2.06-3.21,4.22-9.08,8.58-2.45,1.82-5.69,4.09-9.66,6.51-.92.33-2.43.74-3.2.02a1.807,1.807,0,0,1-.47-1.14c-.2-2.64,15.36-47.69,15.36-47.69a52.992,52.992,0,0,0,3.86-14.44,57.225,57.225,0,0,0,0-12.61c-.76-8.83-.96-17.7-1.53-26.54a433.06,433.06,0,0,1-.41-44.06h0Z"/>
      <path id="패스_23" data-name="패스 23" class="cls-7" d="M814.12,400.98s10.58,56.99,5.42,61.12a51.905,51.905,0,0,1-11.8,6.72s4.98-5.49,5.28-11.6S814.12,400.98,814.12,400.98Z"/>
      <path id="패스_24" data-name="패스 24" class="cls-2" d="M843.48,315.97a264.006,264.006,0,0,0,4.47,91.89s3.12,17.97,0,30.37-15.12,29.29-9.83,35.59a92.151,92.151,0,0,0,12.81,12,47.654,47.654,0,0,0,15.19-1.22c14.9-3.7,31.5-15.73,34.34-31.22,0,0,.72-3.92-6.07-31.56h0l-11.86-51.73q-9.105-25.83-18.22-51.66Q853.885,317.215,843.48,315.97Z"/>
      <path id="패스_25" data-name="패스 25" class="cls-3" d="M873.92,322.31a14.577,14.577,0,0,0-8.39-3.92,14.41,14.41,0,0,0-9.78,2.58,13.183,13.183,0,0,0-4,4.99c-5.69,12.81-2.64,82.37-2.64,82.37l-52.88,34.98,6.92,17.83s15.69-7.39,32.02-15.69c21.32-10.85,31.77-16.67,35.78-21.19,7.85-8.83,9.32-31.28,11.93-75.83.25-4.2.64-12.73-4.37-20.64A28.432,28.432,0,0,0,873.92,322.31Z"/>
      <path id="패스_26" data-name="패스 26" class="cls-3" d="M812.29,328.15a123.844,123.844,0,0,0-19.02,19.78c-5.91,7.69-6.31,13.28-12.31,19.12a40.226,40.226,0,0,1-19.09,10.02l-57.79-54.16q-6,6.21-12,12.41a260.165,260.165,0,0,0,37.22,44.34c19.17,18.2,28.38,21.2,36,21.76,12.29.91,21.9-4.38,25.83-6.92,19.94-12.88,21.07-37.27,21.15-39.86V328.15Z"/>
      <path id="패스_27" data-name="패스 27" class="cls-8" d="M622.25,325.15l-12.11,12.03s-9.98-11.67-9.4-17.36,4.31-9.48,7.87-8.15S622.25,325.15,622.25,325.15Z"/>
      <path id="패스_28" data-name="패스 28" class="cls-1" d="M803.14,461.15s-18.17,6.27-21.69,5.66-9.98-2.24-7.54-6.46,22.32-17.03,22.32-17.03l6.91,17.83h0"/>
    </g>
    <g id="레이어_8">
      <path id="패스_29" data-name="패스 29" class="cls-9" d="M799.59,277c5.38-2.57,7.19-5.1,7.79-7.03a4.608,4.608,0,0,1,1.45-2.51c1.38-1.07,3.37-.85,4.88-.47,0,0-8.14,10.17-1.42,13.29a9.189,9.189,0,0,0,4.63.8c2.09-.26,3.26-1.22,3.84-.65.31.29.23.79.2,1.21-.22,2.7.85,6.04,2.05,6.31.83.19,1.77-1.06,1.99-1.36.83-1.11.46-1.71,1.08-3.12.79-1.78,2.58-3.48,4-3.22a1.946,1.946,0,0,1,.67.29c1.92,1.36-.71,11.34-1.45,14.04l1.49.89s11.93-5.83,12.07-13.15,4.29-11.71-3.75-21.59-13.47-4.04-13.47-4.04a15.926,15.926,0,0,0-9.69-4.34c-7.19-.41-12.99,4.86-15.56,9.97A19.424,19.424,0,0,0,799.59,277Z"/>
    </g>
    <g id="넥타이">
      <path id="패스_30" data-name="패스 30" class="cls-10" d="M817.83,327.21q.54,0,1.14.03c.44.02.85.06,1.25.1.14,1.1.39,3.18.56,5.8l-1.98,28.22c-.84,5.23-1.9,10.7-3.25,16.37a223.155,223.155,0,0,1-14.03,40.78q-6.435,1.26-12.88,2.51c-3.84-1.35-4.74-2.52-4.76-3.39-.03-1.5,2.71-2.04,5.9-5.88,3.15-3.79,7.56-9.48,13.97-29.03a310.25,310.25,0,0,0,10.98-43.07c.86-4.45,1.49-8.14,1.91-10.65C817.03,328.4,817.43,327.81,817.83,327.21Z"/>
      <path id="패스_31" data-name="패스 31" class="cls-11" d="M808.77,366.12c2.92.82,5.83,1.65,8.75,2.47l-.21,1.08c-2.93-.88-5.86-1.75-8.79-2.63C808.6,366.73,808.68,366.42,808.77,366.12Z"/>
      <path id="패스_32" data-name="패스 32" class="cls-11" d="M808.77,366.12l9.02,1.04-.15.8-9.13-.92Z"/>
    </g>
    <g id="노트북_x27_">
      <path id="패스_33" data-name="패스 33" class="cls-12" d="M757.44,400l-24.68-23.46-.68,63.87,24.55,17.49Z"/>
      <path id="패스_34" data-name="패스 34" class="cls-13" d="M756.63,457.9h59.56l-25.26-18.04-34.04-.68Z"/>
      <text id="gram" class="cls-14" transform="matrix(0.907, 0.422, -0.422, 0.907, 736.062, 417.275)"><tspan x="0" y="0">gram</tspan></text>
    </g>
  </g>
</svg>
