<svg xmlns="http://www.w3.org/2000/svg" xmlns:xlink="http://www.w3.org/1999/xlink" width="631.968" height="631.968" viewBox="0 0 631.968 631.968">
  <defs>
    <style>
      .cls-1 {
        fill: none;
        stroke: #07cece;
        stroke-width: 2px;
      }

      .cls-2 {
        clip-path: url(#clip-path);
      }
    </style>
    <clipPath id="clip-path">
      <circle id="타원_6" data-name="타원 6" class="cls-1" cx="258" cy="258" r="258" transform="translate(916 1334)"/>
    </clipPath>
  </defs>
  <g id="마스크_그룹_2" data-name="마스크 그룹 2" class="cls-2" transform="matrix(0.259, -0.966, 0.966, 0.259, -1525.623, 1037.941)">
    <path id="패스_82" data-name="패스 82" class="cls-1" d="M3483.948,2617.5s-239.445,281.807-479.143,443.33-282.977,143.916-479.65,202.763" transform="translate(-2003.006 -1286.536)"/>
    <path id="패스_83" data-name="패스 83" class="cls-1" d="M3483.948,2617.5s-121.908,395.686-958.793,646.092" transform="translate(-2176.373 -1514.544)"/>
    <path id="패스_84" data-name="패스 84" class="cls-1" d="M3483.948,2617.5s-121.908,395.686-958.793,646.092" transform="translate(-2015.148 -1298.678)"/>
    <path id="패스_85" data-name="패스 85" class="cls-1" d="M3483.948,2617.5s-121.908,395.686-958.793,646.092" transform="translate(-2188.516 -1526.687)"/>
    <path id="패스_86" data-name="패스 86" class="cls-1" d="M3483.948,2617.5s-121.908,395.686-958.793,646.092" transform="translate(-1917.334 -1173.206)"/>
    <path id="패스_87" data-name="패스 87" class="cls-1" d="M3483.948,2617.5s-140.213,230.365-379.911,391.889-373,192.6-578.882,254.2" transform="translate(-2090.701 -1401.214)"/>
    <path id="패스_88" data-name="패스 88" class="cls-1" d="M3483.948,2617.5s-121.908,395.686-958.793,646.092" transform="translate(-1929.476 -1185.348)"/>
    <path id="패스_89" data-name="패스 89" class="cls-1" d="M3483.948,2617.5s-121.908,395.686-958.793,646.092" transform="translate(-2102.844 -1413.357)"/>
    <path id="패스_90" data-name="패스 90" class="cls-1" d="M3483.948,2617.5s-121.908,395.686-958.793,646.092" transform="translate(-1963.88 -1224.474)"/>
    <path id="패스_91" data-name="패스 91" class="cls-1" d="M3483.948,2617.5s-121.908,395.686-958.793,646.092" transform="translate(-2137.248 -1452.483)"/>
    <path id="패스_92" data-name="패스 92" class="cls-1" d="M3483.948,2617.5s-121.908,395.686-958.793,646.092" transform="translate(-1976.023 -1236.617)"/>
    <path id="패스_93" data-name="패스 93" class="cls-1" d="M3483.948,2617.5s-176.12,251.093-415.819,412.616-311.989,164.363-542.974,233.477" transform="translate(-2149.39 -1464.625)"/>
    <path id="패스_94" data-name="패스 94" class="cls-1" d="M3483.948,2617.5s-121.908,395.686-958.793,646.092" transform="translate(-1878.208 -1111.145)"/>
    <path id="패스_95" data-name="패스 95" class="cls-1" d="M3483.948,2617.5s-121.908,395.686-958.793,646.092" transform="translate(-2051.576 -1339.153)"/>
    <path id="패스_96" data-name="패스 96" class="cls-1" d="M3483.948,2617.5s-121.908,395.686-958.793,646.092" transform="translate(-1890.351 -1123.287)"/>
    <path id="패스_97" data-name="패스 97" class="cls-1" d="M3483.948,2617.5s-121.908,395.686-958.793,646.092" transform="translate(-2063.718 -1351.295)"/>
    <path id="패스_98" data-name="패스 98" class="cls-1" d="M3483.948,2617.5s-121.908,395.686-958.793,646.092" transform="translate(-2028.64 -1313.519)"/>
    <path id="패스_99" data-name="패스 99" class="cls-1" d="M3483.948,2617.5s-121.908,395.686-958.793,646.092" transform="translate(-2202.007 -1541.527)"/>
    <path id="패스_100" data-name="패스 100" class="cls-1" d="M3483.948,2617.5s-121.908,395.686-958.793,646.092" transform="translate(-2040.782 -1325.661)"/>
    <path id="패스_101" data-name="패스 101" class="cls-1" d="M3483.948,2617.5s-121.908,395.686-958.793,646.092" transform="translate(-2214.15 -1553.67)"/>
    <path id="패스_102" data-name="패스 102" class="cls-1" d="M3483.948,2617.5s-121.908,395.686-958.793,646.092" transform="translate(-1942.968 -1200.189)"/>
    <path id="패스_103" data-name="패스 103" class="cls-1" d="M3483.948,2617.5s-51.51,226.023-432.722,441.944c-129.592,73.4-312.66,140.293-526.07,204.148" transform="translate(-2116.335 -1428.198)"/>
    <path id="패스_104" data-name="패스 104" class="cls-1" d="M3483.948,2617.5s-121.908,395.686-958.793,646.092" transform="translate(-1955.111 -1212.332)"/>
    <path id="패스_105" data-name="패스 105" class="cls-1" d="M3483.948,2617.5s-121.908,395.686-958.793,646.092" transform="translate(-2128.478 -1440.34)"/>
    <path id="패스_106" data-name="패스 106" class="cls-1" d="M3483.948,2617.5s-70.97,225.955-469.562,445.167c-126.97,69.829-286.7,140.325-489.231,200.925" transform="translate(-1989.514 -1251.457)"/>
    <path id="패스_107" data-name="패스 107" class="cls-1" d="M3483.948,2617.5s-161.475,244.015-401.173,405.538-316.592,168.436-557.62,240.554" transform="translate(-2162.882 -1479.466)"/>
    <path id="패스_108" data-name="패스 108" class="cls-1" d="M3483.948,2617.5S3239.693,2902.9,3000,3064.427s-279,140.569-474.84,199.166" transform="translate(-2001.657 -1263.6)"/>
    <path id="패스_109" data-name="패스 109" class="cls-1" d="M3483.948,2617.5s-165.483,242.314-405.181,403.837-314.258,170.638-553.611,242.255" transform="translate(-2175.024 -1491.608)"/>
    <path id="패스_110" data-name="패스 110" class="cls-1" d="M3483.948,2617.5s-121.908,395.686-958.793,646.092" transform="translate(-1903.842 -1138.128)"/>
    <path id="패스_111" data-name="패스 111" class="cls-1" d="M3483.948,2617.5s-121.908,395.686-958.793,646.092" transform="translate(-2077.21 -1366.136)"/>
    <path id="패스_112" data-name="패스 112" class="cls-1" d="M3483.948,2617.5s-121.908,395.686-958.793,646.092" transform="translate(-1915.985 -1150.27)"/>
    <path id="패스_113" data-name="패스 113" class="cls-1" d="M3483.948,2617.5s-121.908,395.686-958.793,646.092" transform="translate(-2089.352 -1378.279)"/>
  </g>
</svg>
