<svg xmlns="http://www.w3.org/2000/svg" xmlns:xlink="http://www.w3.org/1999/xlink" width="1045.009" height="1045.009" viewBox="0 0 1045.009 1045.009">
  <defs>
    <style>
      .cls-1 {
        fill: none;
        stroke: #3da9fc;
        stroke-width: 2px;
      }

      .cls-2 {
        clip-path: url(#clip-path);
      }
    </style>
    <clipPath id="clip-path">
      <circle id="타원_7" data-name="타원 7" class="cls-1" cx="382.5" cy="382.5" r="382.5" transform="translate(916 1334)"/>
    </clipPath>
  </defs>
  <g id="마스크_그룹_3" data-name="마스크 그룹 3" class="cls-2" transform="translate(788.789 2658.287) rotate(-150)">
    <path id="패스_114" data-name="패스 114" class="cls-1" d="M3946.471,2617.5s-354.953,417.75-710.282,657.192-419.486,213.341-711.034,300.576" transform="translate(-2193 -1288)"/>
    <path id="패스_115" data-name="패스 115" class="cls-1" d="M3946.471,2617.5s-180.717,586.565-1421.316,957.768" transform="translate(-2450 -1626)"/>
    <path id="패스_116" data-name="패스 116" class="cls-1" d="M3946.471,2617.5s-180.717,586.565-1421.316,957.768" transform="translate(-2211 -1306)"/>
    <path id="패스_117" data-name="패스 117" class="cls-1" d="M3946.471,2617.5s-180.717,586.565-1421.316,957.768" transform="translate(-2468 -1644)"/>
    <path id="패스_118" data-name="패스 118" class="cls-1" d="M3946.471,2617.5s-180.717,586.565-1421.316,957.768" transform="translate(-2066 -1120)"/>
    <path id="패스_119" data-name="패스 119" class="cls-1" d="M3946.471,2617.5s-207.852,341.494-563.181,580.936-552.94,285.514-858.135,376.832" transform="translate(-2323 -1458)"/>
    <path id="패스_120" data-name="패스 120" class="cls-1" d="M3946.471,2617.5s-180.717,586.565-1421.316,957.768" transform="translate(-2084 -1138)"/>
    <path id="패스_121" data-name="패스 121" class="cls-1" d="M3946.471,2617.5s-180.717,586.565-1421.316,957.768" transform="translate(-2341 -1476)"/>
    <path id="패스_122" data-name="패스 122" class="cls-1" d="M3946.471,2617.5s-180.717,586.565-1421.316,957.768" transform="translate(-2135 -1196)"/>
    <path id="패스_123" data-name="패스 123" class="cls-1" d="M3946.471,2617.5s-180.717,586.565-1421.316,957.768" transform="translate(-2392 -1534)"/>
    <path id="패스_124" data-name="패스 124" class="cls-1" d="M3946.471,2617.5s-180.717,586.565-1421.316,957.768" transform="translate(-2153 -1214)"/>
    <path id="패스_125" data-name="패스 125" class="cls-1" d="M3946.471,2617.5s-261.081,372.22-616.41,611.662-462.493,243.652-804.906,346.106" transform="translate(-2410 -1552)"/>
    <path id="패스_126" data-name="패스 126" class="cls-1" d="M3946.471,2617.5s-180.717,586.565-1421.316,957.768" transform="translate(-2008 -1028)"/>
    <path id="패스_127" data-name="패스 127" class="cls-1" d="M3946.471,2617.5s-180.717,586.565-1421.316,957.768" transform="translate(-2265 -1366)"/>
    <path id="패스_128" data-name="패스 128" class="cls-1" d="M3946.471,2617.5s-180.717,586.565-1421.316,957.768" transform="translate(-2026 -1046)"/>
    <path id="패스_129" data-name="패스 129" class="cls-1" d="M3946.471,2617.5s-180.717,586.565-1421.316,957.768" transform="translate(-2283 -1384)"/>
    <path id="패스_130" data-name="패스 130" class="cls-1" d="M3946.471,2617.5s-180.717,586.565-1421.316,957.768" transform="translate(-2231 -1328)"/>
    <path id="패스_131" data-name="패스 131" class="cls-1" d="M3946.471,2617.5s-180.717,586.565-1421.316,957.768" transform="translate(-2488 -1666)"/>
    <path id="패스_132" data-name="패스 132" class="cls-1" d="M3946.471,2617.5s-180.717,586.565-1421.316,957.768" transform="translate(-2249 -1346)"/>
    <path id="패스_133" data-name="패스 133" class="cls-1" d="M3946.471,2617.5s-180.717,586.565-1421.316,957.768" transform="translate(-2506 -1684)"/>
    <path id="패스_134" data-name="패스 134" class="cls-1" d="M3946.471,2617.5s-180.717,586.565-1421.316,957.768" transform="translate(-2104 -1160)"/>
    <path id="패스_135" data-name="패스 135" class="cls-1" d="M3946.471,2617.5S3870.112,2952.557,3305,3272.638c-192.107,108.811-463.487,207.971-779.847,302.63" transform="translate(-2361 -1498)"/>
    <path id="패스_136" data-name="패스 136" class="cls-1" d="M3946.471,2617.5s-180.717,586.565-1421.316,957.768" transform="translate(-2122 -1178)"/>
    <path id="패스_137" data-name="패스 137" class="cls-1" d="M3946.471,2617.5s-180.717,586.565-1421.316,957.768" transform="translate(-2379 -1516)"/>
    <path id="패스_138" data-name="패스 138" class="cls-1" d="M3946.471,2617.5s-105.207,334.956-696.079,659.916c-188.22,103.515-425,208.019-725.236,297.852" transform="translate(-2173 -1236)"/>
    <path id="패스_139" data-name="패스 139" class="cls-1" d="M3946.471,2617.5s-239.371,361.728-594.7,601.17-469.317,249.69-826.616,356.6" transform="translate(-2430 -1574)"/>
    <path id="패스_140" data-name="패스 140" class="cls-1" d="M3946.471,2617.5s-362.083,423.083-717.412,662.525-413.6,208.379-703.9,295.243" transform="translate(-2191 -1254)"/>
    <path id="패스_141" data-name="패스 141" class="cls-1" d="M3946.471,2617.5s-245.312,359.207-600.641,598.648-465.856,252.954-820.674,359.12" transform="translate(-2448 -1592)"/>
    <path id="패스_142" data-name="패스 142" class="cls-1" d="M3946.471,2617.5s-180.717,586.565-1421.316,957.768" transform="translate(-2046 -1068)"/>
    <path id="패스_143" data-name="패스 143" class="cls-1" d="M3946.471,2617.5s-180.717,586.565-1421.316,957.768" transform="translate(-2303 -1406)"/>
    <path id="패스_144" data-name="패스 144" class="cls-1" d="M3946.471,2617.5s-180.717,586.565-1421.316,957.768" transform="translate(-2064 -1086)"/>
    <path id="패스_145" data-name="패스 145" class="cls-1" d="M3946.471,2617.5s-180.717,586.565-1421.316,957.768" transform="translate(-2321 -1424)"/>
  </g>
</svg>
