<svg xmlns="http://www.w3.org/2000/svg" width="221.76" height="485.425" viewBox="0 0 221.76 485.425">
  <defs>
    <style>
      .cls-1 {
        fill: #fc9;
      }

      .cls-2 {
        fill: #fe90c5;
      }

      .cls-3 {
        fill: #e288bb;
      }

      .cls-4 {
        fill: #ffd215;
      }

      .cls-5 {
        fill: #ff78ba;
      }

      .cls-6 {
        fill: #353b6f;
      }

      .cls-7 {
        fill: #3b417b;
      }
    </style>
  </defs>
  <g id="여자사원1_사본" data-name="여자사원1 사본" transform="translate(-1040.83 -273.515)">
    <g id="얼굴">
      <path id="패스_35" data-name="패스 35" class="cls-1" d="M1129.37,301.05c2.01.42,6.34,1.64,8.78,5.4.64,1,1.51,2.72,1.25,12.19-.32,11.74-1.76,13.06-2.44,13.56-2.89,2.12-7.44.58-9.49-.27l4.75,16.95-22.24,2.17q2.91-13.35,5.81-26.71c-.51-.27-1.09-.68-1.17-1.27-.12-.86.95-1.1,1.22-2.19.4-1.61-1.68-2.44-1.47-4.78a4.193,4.193,0,0,0,0-1.42,6.747,6.747,0,0,0-.97-1.93c-.62-1.69,3.41-4.63,3.41-4.63A68.7,68.7,0,0,1,1129.37,301.05Z"/>
    </g>
    <g id="머리">
      <path id="패스_36" data-name="패스 36" class="cls-1" d="M1101.03,338.97"/>
      <path id="패스_37" data-name="패스 37" class="cls-2" d="M1138.74,306.37c-.03-.27-.07-.67-.14-1.14-.19-1.24-1.3-8.02-5.16-11.81-4.54-4.46-11.68-3.63-14.95-3.25-2.07.24-12.67,1.47-16.88,9.61-.2.39-3.28,6.53-1.47,12.1a80.59,80.59,0,0,1,2.8,10.53v.02c.04.31.59,4.21.7,5.77.01.16.05.81.16,1.66.09.77.18,1.08.37,3.17.3,3.23.26,4.11,1,4.94a4.559,4.559,0,0,0,3.35,1.24c-.05-1.63-.11-3.25-.16-4.88l2.4,5.22c1.31.05,2.68.06,4.1.04,2.31-.04,4.48-.18,6.5-.39-.26-.59-.53-1.18-.79-1.77.83.9,1.67,1.8,2.5,2.7l2.82-.63a23.109,23.109,0,0,1-2.13-2.28,26.827,26.827,0,0,1-3.25-5.02,39.909,39.909,0,0,1-2.52-6.16,42.991,42.991,0,0,1-1.34-4.61c-.16-.71-.34-1.81-.7-3.99-.49-3.03-.56-3.84-.28-4.91a7,7,0,0,1,.87-1.95,9.647,9.647,0,0,1,4.45-3.72c2.32-.98,2.56-.05,4.88-1.14.98-.46,3.05-1.42,3.51-3.25.11-.44.07-.66.24-.75.83-.44,2.79,3.81,6.49,4.62a5.931,5.931,0,0,0,2.04.09A3.929,3.929,0,0,0,1138.74,306.37Z"/>
      <path id="패스_38" data-name="패스 38" class="cls-3" d="M1138.74,306.37l1.75,6.38a74.032,74.032,0,0,0,2.7,8,24.956,24.956,0,0,0,1.99,4.25,18,18,0,0,0,5.65,5.63l-1.18.95a20.437,20.437,0,0,1-2.97-2.54,23.509,23.509,0,0,1-2.03-2.42,19.823,19.823,0,0,1-2.54-4.45,24.79,24.79,0,0,1-.98-2.75c-.59-1.95-1.31-4.3-2.14-7.05-.41-2.01-.83-4.03-1.24-6.04C1138.09,306.35,1138.41,306.36,1138.74,306.37Z"/>
      <path id="패스_39" data-name="패스 39" class="cls-3" d="M1139.4,318.88c2.86,5.85,3.99,8.2,4.34,8.97.23.49.46.98.7,1.47.34.7.51,1.05.64,1.25.4.61.58.67.57.91-.02.34-.49.61-1.44,1.14-.7.39-1.28.71-1.69.93a18.444,18.444,0,0,1-3.09,1.22c-1.83.54-2.81.8-4,.53a5.452,5.452,0,0,1-3.05-2.07,5,5,0,0,0,3.24-.33,5.162,5.162,0,0,0,2.59-2.85c.25-1.08.48-2.23.67-3.45A46.07,46.07,0,0,0,1139.4,318.88Z"/>
      <path id="패스_40" data-name="패스 40" class="cls-4" d="M1120.83,303.34l2.22,3.03a3.956,3.956,0,0,0-.47.05,5.769,5.769,0,0,0-1.81.56c-.63-.89-1.27-1.78-1.9-2.67C1119.52,303.98,1120.18,303.66,1120.83,303.34Z"/>
      <path id="패스_41" data-name="패스 41" class="cls-4" d="M1124.4,303.01l1.86,2.55a7.081,7.081,0,0,1-1.19.51,6.489,6.489,0,0,1-.72.19c-.54-.78-1.07-1.57-1.61-2.35C1123.29,303.61,1123.85,303.31,1124.4,303.01Z"/>
    </g>
    <g id="바지">
      <path id="패스_42" data-name="패스 42" class="cls-5" d="M1166.47,496.79q15.255,17.04-51,107.08s-39.05,65.36-45.02,93.56l-5.97,28.2H1045.5l18.44-80.54a86.84,86.84,0,0,1,6.24-17.29,87.909,87.909,0,0,1,20.34-26.85c1.59-11.37,3.65-23.33,6.31-35.8a514.062,514.062,0,0,1,16.74-60.27C1138.6,492.02,1159.21,488.69,1166.47,496.79Z"/>
      <path id="패스_43" data-name="패스 43" class="cls-2" d="M1178.76,485.75c5.59,3.69,4.3,11.45,10.68,51.88,1.49,9.42,1.51,8.7,2.31,14.24a381.592,381.592,0,0,1,3.8,47.73c.53,23.04,1.5,73.52,20.07,122.85.66,1.76,1.21,3.16,1.36,3.53l-17.36-.27a215.057,215.057,0,0,1-13.63-32.58,222.687,222.687,0,0,1-8.61-37.93c-1.05-7.48-1.39-13.3-1.68-17.81a304.765,304.765,0,0,1-.35-32.56,196.218,196.218,0,0,0-5.9-19.32c-2.7-7.45-5.23-14.44-9.69-22.37-.99-1.77-2.33-4.02-4.07-7.59,0,0-2.6-5.37-4.88-11.8-2.53-7.15-6.74-23.11-10.67-44.42C1166.85,479.81,1176.12,484.01,1178.76,485.75Z"/>
      <path id="패스_44" data-name="패스 44" class="cls-6" d="M1199.63,725.63q8.67.165,17.34.34a54.26,54.26,0,0,0,12.43,23.8,52.838,52.838,0,0,0,10.83,9.12c-3.68-.03-7.36-.07-11.03-.1a43.945,43.945,0,0,1-21.05-12.36,40.41,40.41,0,0,1-3.41-4.25q-.375,8.385-.76,16.76c-3.08-.02-6.17-.03-9.25-.05-.05-2.97-.13-7.47-.2-13.02-.08-6.1-.08-8.07.56-10.75A25.389,25.389,0,0,1,1199.63,725.63Z"/>
      <path id="패스_45" data-name="패스 45" class="cls-6" d="M1045.5,725.63h18.98a48.933,48.933,0,0,0,11.25,24.14,47.136,47.136,0,0,0,10.83,9.12c-3.68-.03-7.36-.07-11.03-.1a43.945,43.945,0,0,1-21.05-12.36,40.41,40.41,0,0,1-3.41-4.25q-.375,8.385-.76,16.76c-3.08-.02-6.17-.03-9.25-.05-.05-2.97-.13-7.47-.2-13.02-.08-6.14-.03-8.12.56-10.75A28.219,28.219,0,0,1,1045.5,725.63Z"/>
    </g>
    <g id="귀">
      <path id="패스_46" data-name="패스 46" class="cls-1" d="M1115.53,314.57a4.311,4.311,0,0,0-4.7,2.52,4.434,4.434,0,0,0,1.71,4.97,19.573,19.573,0,0,0,2.69,1.1c.88.34,1.6.63,2.06.81Z"/>
    </g>
    <g id="옷">
      <path id="패스_47" data-name="패스 47" class="cls-7" d="M1109.98,351.05a215.681,215.681,0,0,1,22.9-2.2c15.36-.65,23.83.64,39,1.12a346.006,346.006,0,0,0,35.34-.71,28.345,28.345,0,0,0-.97,7.83,27.866,27.866,0,0,0,.68,5.63c-4.07.03-13.03.14-21.29.73-2.75.2-5.05.42-5.93.51-3.08.31-6.32.64-10.34,1.34-4.09.72-6.14,1.07-7.86,1.9a20.793,20.793,0,0,0-6.61,5.15c-1.6,1.77-2.56,2.84-2.95,4.47-.76,3.19,1.18,6.15,1.76,7.12,3.78,6.33.89,14,1.29,26.24.25,7.57,2.3,14.67,6.37,28.88.36,1.26,0-.04,7.59,22.37,2.55,7.53,5.08,15.03,10.31,24.27.23.4.41.73.54.95a143.567,143.567,0,0,1-32,13.42c-19.58,5.51-43.74,7.67-44.6,4.29-.11-.42.19-.76.81-1.58,3.33-4.42,5.25-9.09,9.08-18.44,1.65-4.01,1.55-4.51,3.15-7.97,1.2-2.58,1.96-3.82,3.56-7.12,1.38-2.84,2.41-5.19,3.05-6.71a56.57,56.57,0,0,0,3.39-6.68,59.357,59.357,0,0,0,2.4-6.84c.96-3.64.49-8.78-5.25-21.23-5.39-11.68-8.62-14.06-12.47-23.32-.16-.39-1.4-2.97-3.86-8.14-2.43-5.09-3.17-7.25-4.54-7.32-1.61-.09-3.03,2.71-3.93,4.75-1.81,4.12-4.72,12.51-5.83,28.1.06,1.3.11,2.6.17,3.9a7.458,7.458,0,0,1-.56,5.81,8.214,8.214,0,0,1-3.93,3,11.308,11.308,0,0,1-5.58,1.36,10.814,10.814,0,0,1-7.19-3.53c7.64-25.33,10.13-39.36,10.58-47.73.16-2.9.37-10.74,5.02-17.49a50.922,50.922,0,0,1,6.51-7.46,53.506,53.506,0,0,1,6.53-5.29A54.215,54.215,0,0,1,1109.98,351.05Z"/>
      <path id="패스_48" data-name="패스 48" class="cls-1" d="M1075.68,431.59a8.6,8.6,0,0,0,3.32,2.92,8.854,8.854,0,0,0,4.47.81,14.625,14.625,0,0,0,8.68-3.53q1.725,38.745,3.46,77.49-.1,10.2-.2,20.41a13.743,13.743,0,0,1-3.97,2.25c-.45.16-5.76,2.01-8.23.19-3.04-2.24-.61-9.17.7-17.53.55-3.51.45-10.47.25-24.37C1083.85,469.19,1078.2,442.67,1075.68,431.59Z"/>
      <path id="패스_49" data-name="패스 49" class="cls-1" d="M1248.22,298.17c-.36,4.91-16.02,25.88-41,51.08a29.809,29.809,0,0,0-1.27,7.02c-.19,3.21-.34,5.63.98,6.44,1.38.85,4-.29,6.37-2.58q24.645-33.945,49.29-67.88l-7.53-5.34,4.27-11.59s0-1.7-.51-1.8c-.28-.06-.6.41-.71.58-1.12,1.64-6.24,12.66-7.73,15.86a21.847,21.847,0,0,1-.41-2.92,21.557,21.557,0,0,1-.02-2.77c-.07-.07-.56-.56-.92-.42-.13.05-.31.22-.41,1.15a5.609,5.609,0,0,0,0,1.83C1248.94,288.53,1248.35,296.45,1248.22,298.17Z"/>
    </g>
  </g>
</svg>
